<svg width="25" height="24" viewBox="0 0 25 24" fill="none" xmlns="http://www.w3.org/2000/svg">
<path d="M19.5 14H5.5C4.39543 14 3.5 14.8954 3.5 16V19C3.5 20.1046 4.39543 21 5.5 21H19.5C20.6046 21 21.5 20.1046 21.5 19V16C21.5 14.8954 20.6046 14 19.5 14Z" stroke="black" stroke-width="1.5"/>
<path d="M10.5 3.5H5.5C4.96957 3.5 4.46086 3.71071 4.08579 4.08579C3.71071 4.46086 3.5 4.96957 3.5 5.5V8.5C3.5 9.03043 3.71071 9.53914 4.08579 9.91421C4.46086 10.2893 4.96957 10.5 5.5 10.5H10.5" stroke="black" stroke-width="1.5" stroke-linecap="round"/>
<path d="M17.5 11C19.7091 11 21.5 9.20914 21.5 7C21.5 4.79086 19.7091 3 17.5 3C15.2909 3 13.5 4.79086 13.5 7C13.5 9.20914 15.2909 11 17.5 11Z" stroke="black" stroke-width="1.5"/>
<path d="M17.5 8C18.0523 8 18.5 7.55228 18.5 7C18.5 6.44772 18.0523 6 17.5 6C16.9477 6 16.5 6.44772 16.5 7C16.5 7.55228 16.9477 8 17.5 8Z" fill="black"/>
</svg>
