<svg width="201" height="58" viewBox="0 0 201 58" fill="none" xmlns="http://www.w3.org/2000/svg">
<path d="M2.12568 51.2263C2.26023 51.4695 2.41334 51.7689 2.58036 52.1244C2.75203 52.4753 2.92833 52.8425 3.10927 53.2284C3.2879 53.6167 3.4642 54.0097 3.63819 54.4073C3.80985 54.8073 3.97224 55.1745 4.1207 55.5113C4.26221 55.1745 4.41996 54.8073 4.59394 54.4073C4.76561 54.0097 4.93959 53.6167 5.11357 53.2284C5.2922 52.8425 5.46618 52.4753 5.63321 52.1244C5.80487 51.7689 5.96262 51.4695 6.10645 51.2263H7.18283C7.24314 51.7128 7.29882 52.232 7.34985 52.7794C7.39857 53.322 7.44265 53.881 7.47976 54.4541C7.52152 55.0295 7.56327 55.6049 7.60039 56.1849C7.63751 56.7603 7.66767 57.3217 7.69318 57.869H6.51473C6.48921 57.0972 6.45905 56.3019 6.42194 55.4832C6.38482 54.6669 6.33147 53.874 6.26419 53.1068C6.1946 53.2565 6.11109 53.4343 6.01365 53.6401C5.92086 53.8413 5.81879 54.0611 5.70744 54.3044C5.60073 54.543 5.49402 54.7886 5.38267 55.0435C5.27132 55.3008 5.16229 55.5487 5.0579 55.792C4.95815 56.0306 4.86304 56.2504 4.77025 56.4563C4.68209 56.6621 4.60786 56.8399 4.54755 56.9896H3.64747C3.58483 56.8399 3.5106 56.6621 3.42477 56.4563C3.33661 56.2458 3.2415 56.0212 3.13711 55.7826C3.0304 55.5394 2.92369 55.2914 2.81234 55.0342C2.70099 54.7792 2.58964 54.5336 2.47829 54.295C2.37158 54.0588 2.26951 53.8366 2.17208 53.6308C2.07929 53.4249 1.99809 53.2518 1.93082 53.1068C1.86123 53.874 1.81019 54.6669 1.77307 55.4832C1.7406 56.3019 1.71276 57.0972 1.68956 57.869H0.511108C0.534307 57.3217 0.562144 56.7533 0.594621 56.1662C0.631738 55.5815 0.668854 54.9967 0.705971 54.4167C0.747727 53.8366 0.794123 53.2752 0.845158 52.7326C0.900833 52.1899 0.956508 51.6894 1.01218 51.2263H2.12568Z" fill="#4A4747"/>
<path d="M8.36377 55.3897C8.36377 54.9476 8.42872 54.5616 8.55863 54.2295C8.68854 53.8997 8.86021 53.626 9.07827 53.4062C9.29401 53.1816 9.54222 53.0132 9.8206 52.901C10.099 52.7887 10.382 52.7325 10.6743 52.7325C11.3609 52.7325 11.8922 52.9477 12.2703 53.3781C12.6531 53.8038 12.8456 54.4424 12.8456 55.2961C12.8456 55.3592 12.841 55.4318 12.8363 55.5113C12.8363 55.5861 12.8317 55.6586 12.827 55.7265H9.5515C9.58166 56.1264 9.72085 56.4375 9.96907 56.6621C10.2219 56.8819 10.5861 56.9895 11.064 56.9895C11.3424 56.9895 11.5952 56.9661 11.8249 56.9147C12.0592 56.8585 12.2425 56.8024 12.3724 56.7463L12.5301 57.7006C12.4605 57.7333 12.3724 57.7661 12.261 57.8035C12.1543 57.8362 12.0314 57.8643 11.8899 57.8877C11.746 57.9181 11.5929 57.9438 11.4259 57.9626C11.2589 57.9813 11.0918 57.9906 10.9248 57.9906C10.4841 57.9906 10.1036 57.9251 9.78348 57.7941C9.46103 57.6632 9.19426 57.4831 8.98547 57.2515C8.77437 57.0223 8.61663 56.7463 8.51224 56.4282C8.41249 56.1101 8.36377 55.7639 8.36377 55.3897ZM11.7043 54.8657C11.7043 54.7113 11.6788 54.5616 11.63 54.4166C11.586 54.2739 11.521 54.15 11.4352 54.0424C11.354 53.9371 11.2519 53.8553 11.129 53.7991C11.0037 53.7383 10.8552 53.7056 10.6836 53.7056C10.5026 53.7056 10.3449 53.7407 10.2103 53.8085C10.0804 53.8716 9.96907 53.9582 9.87627 54.0705C9.78812 54.178 9.71853 54.302 9.66285 54.4447C9.61182 54.5827 9.57934 54.723 9.56078 54.8657H11.7043Z" fill="#4A4747"/>
<path d="M13.7279 57.869V50.6274L14.8785 50.431V52.9197C15.0015 52.8705 15.1476 52.8308 15.3146 52.798C15.4863 52.7676 15.6533 52.7513 15.8157 52.7513C16.217 52.7513 16.5488 52.8074 16.8086 52.9197C17.073 53.0319 17.2841 53.191 17.4396 53.3968C17.5996 53.598 17.711 53.8366 17.7736 54.1172C17.8409 54.3979 17.8757 54.7113 17.8757 55.0528V57.869H16.7251V55.2306C16.7251 54.964 16.7065 54.7347 16.6694 54.5476C16.6369 54.3605 16.5812 54.2085 16.5024 54.0892C16.4281 53.9722 16.3214 53.888 16.1869 53.8366C16.057 53.7804 15.8923 53.7524 15.6951 53.7524C15.5397 53.7524 15.3819 53.7687 15.2219 53.7991C15.0664 53.8319 14.9528 53.8599 14.8785 53.8833V57.869H13.7279Z" fill="#4A4747"/>
<path d="M21.7556 53.9021C21.6628 53.8717 21.5282 53.8413 21.3566 53.8085C21.1895 53.7711 20.997 53.7524 20.7812 53.7524C20.6513 53.7524 20.5145 53.7664 20.373 53.7898C20.2291 53.8155 20.1317 53.8366 20.076 53.8553V57.869H18.9254V53.0975C19.1481 53.0179 19.4219 52.9384 19.7513 52.8636C20.0853 52.7887 20.4565 52.7513 20.8648 52.7513C20.939 52.7513 21.0248 52.7583 21.1246 52.77C21.229 52.777 21.331 52.7887 21.4308 52.8074C21.5352 52.8215 21.6349 52.8402 21.7277 52.8636C21.8205 52.8893 21.8971 52.9103 21.9597 52.929L21.7556 53.9021Z" fill="#4A4747"/>
<path d="M27.5672 54.716C27.4234 55.2774 27.2703 55.8271 27.1033 56.3627C26.9362 56.8936 26.7692 57.3965 26.6022 57.869H25.665C25.5351 57.5766 25.3982 57.2422 25.2567 56.8679C25.1198 56.489 24.9807 56.0867 24.8392 55.661C24.7023 55.2306 24.5631 54.7792 24.4216 54.3044C24.2847 53.8319 24.1479 53.3477 24.0133 52.8542H25.2289C25.2892 53.1232 25.3588 53.4132 25.433 53.7243C25.5073 54.0377 25.5838 54.3558 25.665 54.6786C25.7508 54.9967 25.8367 55.3125 25.9248 55.6236C26.0176 55.93 26.1058 56.2083 26.1939 56.4562C26.2867 56.1639 26.3795 55.8621 26.4723 55.5487C26.5651 55.2376 26.6509 54.9265 26.7321 54.6131C26.8179 54.302 26.8945 53.9956 26.9641 53.6962C27.0383 53.3968 27.1033 53.1162 27.1589 52.8542H28.0497C28.1054 53.1162 28.1657 53.3968 28.2353 53.6962C28.3026 53.9956 28.3768 54.302 28.458 54.6131C28.5369 54.9265 28.6251 55.2376 28.7178 55.5487C28.8106 55.8621 28.9034 56.1639 28.9962 56.4562C29.0751 56.2083 29.1586 55.93 29.2468 55.6236C29.3395 55.3125 29.4277 54.9967 29.5159 54.6786C29.6017 54.3558 29.6829 54.0377 29.7571 53.7243C29.8313 53.4132 29.8963 53.1232 29.952 52.8542H31.1397C31.0098 53.3477 30.8729 53.8319 30.7314 54.3044C30.5946 54.7792 30.4554 55.2306 30.3139 55.661C30.177 56.0867 30.0378 56.489 29.8963 56.8679C29.7594 57.2422 29.6226 57.5766 29.488 57.869H28.5601C28.3931 57.3965 28.2214 56.8936 28.0497 56.3627C27.8758 55.8271 27.7157 55.2774 27.5672 54.716Z" fill="#4A4747"/>
<path d="M32.8088 57.869H31.6582V52.8542H32.8088V57.869ZM32.9295 51.3947C32.9295 51.6145 32.8576 51.7876 32.7161 51.9186C32.5792 52.0449 32.4145 52.1057 32.2243 52.1057C32.0317 52.1057 31.8647 52.0449 31.7232 51.9186C31.5863 51.7876 31.519 51.6145 31.519 51.3947C31.519 51.1701 31.5863 50.997 31.7232 50.8707C31.8647 50.7397 32.0317 50.6743 32.2243 50.6743C32.4145 50.6743 32.5792 50.7397 32.7161 50.8707C32.8576 50.997 32.9295 51.1701 32.9295 51.3947Z" fill="#4A4747"/>
<path d="M35.2397 57.0363C35.5413 57.0363 35.7617 56.9989 35.8985 56.924C36.04 56.8492 36.1119 56.7252 36.1119 56.5498C36.1119 56.3814 36.0377 56.2457 35.8892 56.1381C35.7408 56.0259 35.4949 55.9089 35.1562 55.7826C34.9451 55.7031 34.7525 55.6212 34.5809 55.5393C34.4069 55.4528 34.2561 55.3522 34.1262 55.24C34.0009 55.123 33.9035 54.9827 33.8293 54.8189C33.755 54.6575 33.7179 54.4587 33.7179 54.2201C33.7179 53.7594 33.8849 53.3968 34.219 53.1349C34.5577 52.8682 35.017 52.7325 35.5923 52.7325C35.8823 52.7325 36.1607 52.7606 36.4274 52.8167C36.6919 52.8729 36.8937 52.9267 37.0306 52.9758L36.8172 53.9114C36.6872 53.8553 36.5225 53.8061 36.3254 53.7617C36.1328 53.7126 35.9078 53.6869 35.648 53.6869C35.4114 53.6869 35.2211 53.729 35.0727 53.8085C34.9288 53.8833 34.8593 54.005 34.8593 54.1734C34.8593 54.2552 34.8709 54.3301 34.8964 54.3979C34.9265 54.4611 34.9752 54.5195 35.0448 54.5757C35.1191 54.6271 35.2119 54.6786 35.3232 54.7347C35.4392 54.7862 35.5784 54.8423 35.7408 54.9031C36.0122 55.0037 36.2442 55.1043 36.4367 55.2025C36.6269 55.3031 36.7847 55.4154 36.9099 55.5393C37.0329 55.6657 37.1234 55.8083 37.179 55.9697C37.2347 56.1264 37.2626 56.3159 37.2626 56.5404C37.2626 57.0153 37.0863 57.3778 36.7336 57.6257C36.381 57.869 35.88 57.9906 35.2304 57.9906C34.7897 57.9906 34.4371 57.9532 34.1726 57.8783C33.9058 57.8105 33.7202 57.7544 33.6158 57.7099L33.8107 56.7369C33.9824 56.8071 34.1865 56.8749 34.4231 56.9427C34.6644 57.0059 34.9358 57.0363 35.2397 57.0363Z" fill="#4A4747"/>
<path d="M39.2728 57.0363C39.5744 57.0363 39.7947 56.9989 39.9316 56.924C40.0731 56.8492 40.145 56.7252 40.145 56.5498C40.145 56.3814 40.0708 56.2457 39.9223 56.1381C39.7739 56.0259 39.528 55.9089 39.1893 55.7826C38.9782 55.7031 38.7856 55.6212 38.614 55.5393C38.44 55.4528 38.2892 55.3522 38.1593 55.24C38.034 55.123 37.9366 54.9827 37.8623 54.8189C37.7881 54.6575 37.751 54.4587 37.751 54.2201C37.751 53.7594 37.918 53.3968 38.2521 53.1349C38.5908 52.8682 39.0501 52.7325 39.6254 52.7325C39.9154 52.7325 40.1937 52.7606 40.4605 52.8167C40.725 52.8729 40.9268 52.9267 41.0637 52.9758L40.8502 53.9114C40.7203 53.8553 40.5556 53.8061 40.3584 53.7617C40.1659 53.7126 39.9409 53.6869 39.6811 53.6869C39.4444 53.6869 39.2542 53.729 39.1058 53.8085C38.9619 53.8833 38.8923 54.005 38.8923 54.1734C38.8923 54.2552 38.9039 54.3301 38.9295 54.3979C38.9596 54.4611 39.0083 54.5195 39.0779 54.5757C39.1522 54.6271 39.2449 54.6786 39.3563 54.7347C39.4723 54.7862 39.6115 54.8423 39.7739 54.9031C40.0453 55.0037 40.2772 55.1043 40.4698 55.2025C40.66 55.3031 40.8178 55.4154 40.943 55.5393C41.066 55.6657 41.1565 55.8083 41.2121 55.9697C41.2678 56.1264 41.2956 56.3159 41.2956 56.5404C41.2956 57.0153 41.1193 57.3778 40.7667 57.6257C40.4141 57.869 39.913 57.9906 39.2635 57.9906C38.8227 57.9906 38.4701 57.9532 38.2057 57.8783C37.9389 57.8105 37.7533 57.7544 37.6489 57.7099L37.8438 56.7369C38.0155 56.8071 38.2196 56.8749 38.4562 56.9427C38.6975 57.0059 38.9689 57.0363 39.2728 57.0363Z" fill="#4A4747"/>
<path d="M41.7842 55.3897C41.7842 54.9476 41.8491 54.5616 41.979 54.2295C42.109 53.8997 42.2806 53.626 42.4987 53.4062C42.7144 53.1816 42.9626 53.0132 43.241 52.901C43.5194 52.7887 43.8024 52.7325 44.0947 52.7325C44.7814 52.7325 45.3126 52.9477 45.6907 53.3781C46.0735 53.8038 46.266 54.4424 46.266 55.2961C46.266 55.3592 46.2614 55.4318 46.2567 55.5113C46.2567 55.5861 46.2521 55.6586 46.2475 55.7265H42.9719C43.0021 56.1264 43.1413 56.4375 43.3895 56.6621C43.6423 56.8819 44.0065 56.9895 44.4844 56.9895C44.7628 56.9895 45.0156 56.9661 45.2453 56.9147C45.4796 56.8585 45.6629 56.8024 45.7928 56.7463L45.9505 57.7006C45.8809 57.7333 45.7928 57.7661 45.6814 57.8035C45.5747 57.8362 45.4518 57.8643 45.3103 57.8877C45.1664 57.9181 45.0133 57.9438 44.8463 57.9626C44.6793 57.9813 44.5123 57.9906 44.3452 57.9906C43.9045 57.9906 43.524 57.9251 43.2039 57.7941C42.8814 57.6632 42.6147 57.4831 42.4059 57.2515C42.1948 57.0223 42.037 56.7463 41.9326 56.4282C41.8329 56.1101 41.7842 55.7639 41.7842 55.3897ZM45.1247 54.8657C45.1247 54.7113 45.0992 54.5616 45.0504 54.4166C45.0064 54.2739 44.9414 54.15 44.8556 54.0424C44.7744 53.9371 44.6723 53.8553 44.5494 53.7991C44.4241 53.7383 44.2756 53.7056 44.104 53.7056C43.923 53.7056 43.7653 53.7407 43.6307 53.8085C43.5008 53.8716 43.3895 53.9582 43.2967 54.0705C43.2085 54.178 43.1389 54.302 43.0833 54.4447C43.0322 54.5827 42.9998 54.723 42.9812 54.8657H45.1247Z" fill="#4A4747"/>
<path d="M47.1576 53.0226C47.3803 52.9618 47.6679 52.901 48.0206 52.8448C48.3732 52.784 48.7652 52.7513 49.199 52.7513C49.6073 52.7513 49.946 52.8074 50.2197 52.9197C50.4911 53.032 50.7069 53.191 50.8693 53.3968C51.0293 53.598 51.1407 53.8413 51.2033 54.1266C51.2706 54.4073 51.3054 54.716 51.3054 55.0529V57.869H50.1548V55.2306C50.1548 54.964 50.1362 54.7348 50.0991 54.5476C50.0666 54.3605 50.0109 54.2085 49.9321 54.0892C49.8578 53.9722 49.7511 53.888 49.6166 53.8366C49.4797 53.7804 49.3127 53.7524 49.1155 53.7524C48.967 53.7524 48.8116 53.7617 48.6515 53.7804C48.4961 53.7992 48.3824 53.8155 48.3082 53.8272V57.869H47.1576V53.0226Z" fill="#4A4747"/>
<path d="M53.6729 57.2328C53.6729 57.4574 53.5987 57.6422 53.4502 57.7848C53.3017 57.9205 53.1208 57.9907 52.912 57.9907C52.694 57.9907 52.513 57.9205 52.3645 57.7848C52.2207 57.6422 52.1511 57.4574 52.1511 57.2328C52.1511 57.0153 52.2207 56.8352 52.3645 56.6902C52.513 56.5405 52.694 56.4656 52.912 56.4656C53.1208 56.4656 53.3017 56.5405 53.4502 56.6902C53.5987 56.8352 53.6729 57.0153 53.6729 57.2328Z" fill="#4A4747"/>
<path d="M60.8194 52.1431C60.1374 52.1431 59.6177 52.356 59.2605 52.7793C58.9009 53.205 58.7223 53.7945 58.7223 54.5476C58.7223 54.9031 58.764 55.2306 58.8522 55.53C58.938 55.8247 59.0656 56.0773 59.2326 56.2878C59.3997 56.5007 59.6061 56.6668 59.8544 56.7837C60.1072 56.903 60.4041 56.9615 60.7452 56.9615C60.9493 56.9615 61.1279 56.9568 61.2833 56.9428C61.4364 56.924 61.5571 56.903 61.6452 56.8773V54.4915H62.8422V57.6819C62.6752 57.745 62.3922 57.8129 61.9978 57.8877C61.6081 57.9626 61.1558 58 60.6431 58C60.1722 58 59.7384 57.9251 59.344 57.7754C58.9543 57.6211 58.6202 57.3965 58.3418 57.1018C58.0635 56.8094 57.8454 56.4516 57.6923 56.0259C57.5438 55.5955 57.4696 55.1043 57.4696 54.5476C57.4696 53.9933 57.5531 53.4997 57.7201 53.0694C57.8918 52.639 58.1238 52.2788 58.4161 51.9841C58.7061 51.6847 59.0471 51.4601 59.4368 51.3104C59.8312 51.1561 60.2487 51.0765 60.6895 51.0765C60.998 51.0765 61.2694 51.0999 61.506 51.142C61.7403 51.1795 61.9445 51.2262 62.1185 51.2824C62.2901 51.3338 62.434 51.3853 62.5453 51.4414C62.6567 51.4976 62.7332 51.5397 62.7773 51.5631L62.4154 52.5548C62.2229 52.4378 61.9839 52.3396 61.7009 52.2648C61.4225 52.1852 61.1279 52.1431 60.8194 52.1431Z" fill="#4A4747"/>
<path d="M63.5428 55.3897C63.5428 54.9476 63.6078 54.5616 63.7377 54.2295C63.8676 53.8997 64.0393 53.626 64.2573 53.4062C64.4731 53.1816 64.7213 53.0132 64.9997 52.901C65.2781 52.7887 65.5611 52.7325 65.8534 52.7325C66.54 52.7325 67.0712 52.9477 67.4494 53.3781C67.8321 53.8038 68.0247 54.4424 68.0247 55.2961C68.0247 55.3592 68.02 55.4318 68.0154 55.5113C68.0154 55.5861 68.0108 55.6586 68.0061 55.7265H64.7306C64.7607 56.1264 64.8999 56.4375 65.1481 56.6621C65.401 56.8819 65.7652 56.9895 66.2431 56.9895C66.5215 56.9895 66.7743 56.9661 67.004 56.9147C67.2383 56.8585 67.4215 56.8024 67.5514 56.7463L67.7092 57.7006C67.6396 57.7333 67.5514 57.7661 67.4401 57.8035C67.3334 57.8362 67.2104 57.8643 67.0689 57.8877C66.9251 57.9181 66.772 57.9438 66.605 57.9626C66.4379 57.9813 66.2709 57.9906 66.1039 57.9906C65.6631 57.9906 65.2827 57.9251 64.9626 57.7941C64.6401 57.6632 64.3733 57.4831 64.1646 57.2515C63.9534 57.0223 63.7957 56.7463 63.6913 56.4282C63.5916 56.1101 63.5428 55.7639 63.5428 55.3897ZM66.8833 54.8657C66.8833 54.7113 66.8578 54.5616 66.8091 54.4166C66.765 54.2739 66.7001 54.15 66.6143 54.0424C66.5331 53.9371 66.431 53.8553 66.308 53.7991C66.1828 53.7383 66.0343 53.7056 65.8626 53.7056C65.6817 53.7056 65.5239 53.7407 65.3894 53.8085C65.2595 53.8716 65.1481 53.9582 65.0554 54.0705C64.9672 54.178 64.8976 54.302 64.8419 54.4447C64.7909 54.5827 64.7584 54.723 64.7399 54.8657H66.8833Z" fill="#4A4747"/>
<path d="M70.1597 57.0363C70.4613 57.0363 70.6817 56.9989 70.8186 56.924C70.9601 56.8492 71.032 56.7252 71.032 56.5498C71.032 56.3814 70.9578 56.2457 70.8093 56.1381C70.6608 56.0259 70.4149 55.9089 70.0762 55.7826C69.8651 55.7031 69.6726 55.6212 69.5009 55.5393C69.3269 55.4528 69.1762 55.3522 69.0462 55.24C68.921 55.123 68.8235 54.9827 68.7493 54.8189C68.6751 54.6575 68.638 54.4587 68.638 54.2201C68.638 53.7594 68.805 53.3968 69.139 53.1349C69.4777 52.8682 69.937 52.7325 70.5124 52.7325C70.8023 52.7325 71.0807 52.7606 71.3475 52.8167C71.6119 52.8729 71.8138 52.9267 71.9506 52.9758L71.7372 53.9114C71.6073 53.8553 71.4426 53.8061 71.2454 53.7617C71.0529 53.7126 70.8278 53.6869 70.568 53.6869C70.3314 53.6869 70.1412 53.729 69.9927 53.8085C69.8489 53.8833 69.7793 54.005 69.7793 54.1734C69.7793 54.2552 69.7909 54.3301 69.8164 54.3979C69.8466 54.4611 69.8953 54.5195 69.9649 54.5757C70.0391 54.6271 70.1319 54.6786 70.2433 54.7347C70.3592 54.7862 70.4984 54.8423 70.6608 54.9031C70.9322 55.0037 71.1642 55.1043 71.3568 55.2025C71.547 55.3031 71.7047 55.4154 71.83 55.5393C71.9529 55.6657 72.0434 55.8083 72.0991 55.9697C72.1548 56.1264 72.1826 56.3159 72.1826 56.5404C72.1826 57.0153 72.0063 57.3778 71.6537 57.6257C71.3011 57.869 70.8 57.9906 70.1505 57.9906C69.7097 57.9906 69.3571 57.9532 69.0926 57.8783C68.8259 57.8105 68.6403 57.7544 68.5359 57.7099L68.7308 56.7369C68.9024 56.8071 69.1066 56.8749 69.3432 56.9427C69.5844 57.0059 69.8558 57.0363 70.1597 57.0363Z" fill="#4A4747"/>
<path d="M77.023 57.7193C76.8003 57.7755 76.5127 57.8316 76.1601 57.8877C75.8075 57.9485 75.4177 57.9813 74.9909 57.9813C74.5872 57.9813 74.2509 57.9252 73.9795 57.8129C73.7127 57.6959 73.4993 57.5369 73.3392 57.3357C73.1768 57.1299 73.0631 56.8866 72.9959 56.606C72.9263 56.3206 72.8938 56.0048 72.8938 55.661V52.8542H74.0444V55.4832C74.0444 56.0212 74.121 56.4048 74.2764 56.634C74.4295 56.8656 74.6986 56.9802 75.0837 56.9802C75.2252 56.9802 75.3737 56.9755 75.5291 56.9615C75.6822 56.9498 75.7982 56.9334 75.8724 56.9147V52.8542H77.023V57.7193ZM73.7475 52.0309C73.5805 52.0309 73.432 51.9747 73.3021 51.8625C73.1768 51.7502 73.1165 51.5958 73.1165 51.3947C73.1165 51.1959 73.1768 51.0368 73.3021 50.9175C73.432 50.8006 73.5805 50.7397 73.7475 50.7397C73.9191 50.7397 74.0723 50.8006 74.2022 50.9175C74.3321 51.0368 74.397 51.1959 74.397 51.3947C74.397 51.5958 74.3321 51.7502 74.2022 51.8625C74.0723 51.9747 73.9191 52.0309 73.7475 52.0309ZM75.7147 52.0309C75.5476 52.0309 75.3992 51.9747 75.2693 51.8625C75.1394 51.7502 75.0744 51.5958 75.0744 51.3947C75.0744 51.1959 75.1394 51.0368 75.2693 50.9175C75.3992 50.8006 75.5476 50.7397 75.7147 50.7397C75.8863 50.7397 76.0348 50.8006 76.1601 50.9175C76.29 51.0368 76.3549 51.1959 76.3549 51.3947C76.3549 51.5958 76.29 51.7502 76.1601 51.8625C76.0348 51.9747 75.8863 52.0309 75.7147 52.0309Z" fill="#4A4747"/>
<path d="M78.147 53.0226C78.3697 52.9618 78.6573 52.901 79.0099 52.8448C79.3625 52.784 79.7546 52.7513 80.1884 52.7513C80.5967 52.7513 80.9354 52.8074 81.2091 52.9197C81.4805 53.032 81.6963 53.191 81.8586 53.3968C82.0187 53.598 82.1301 53.8413 82.1927 54.1266C82.26 54.4073 82.2948 54.716 82.2948 55.0529V57.869H81.1441V55.2306C81.1441 54.964 81.1256 54.7348 81.0885 54.5476C81.056 54.3605 81.0003 54.2085 80.9214 54.0892C80.8472 53.9722 80.7405 53.888 80.606 53.8366C80.4691 53.7804 80.3021 53.7524 80.1049 53.7524C79.9564 53.7524 79.801 53.7617 79.6409 53.7804C79.4855 53.7992 79.3718 53.8155 79.2976 53.8272V57.869H78.147V53.0226Z" fill="#4A4747"/>
<path d="M84.2724 55.3522C84.2724 55.8645 84.3931 56.2668 84.6343 56.5592C84.8756 56.8469 85.2096 56.9895 85.6365 56.9895C85.8151 56.9895 85.9705 56.9849 86.1004 56.9708C86.2304 56.9521 86.3371 56.9334 86.4252 56.9147V54.033C86.3185 53.9652 86.184 53.902 86.0169 53.8459C85.8499 53.7851 85.669 53.7524 85.4787 53.7524C85.0635 53.7524 84.7573 53.8974 84.5601 54.1827C84.3676 54.4704 84.2724 54.861 84.2724 55.3522ZM87.5666 57.7193C87.3439 57.7895 87.0585 57.8503 86.7129 57.9064C86.3649 57.9626 86.003 57.9906 85.6272 57.9906C85.2305 57.9906 84.8779 57.9298 84.5694 57.8129C84.2585 57.6889 83.9941 57.5135 83.7714 57.2889C83.5533 57.0644 83.3863 56.7907 83.2703 56.4656C83.152 56.1428 83.094 55.7803 83.094 55.3803C83.094 54.9827 83.1427 54.6225 83.2425 54.3044C83.3399 53.9816 83.4837 53.7032 83.6693 53.4717C83.8595 53.2424 84.0915 53.0647 84.3652 52.9384C84.6367 52.8144 84.9521 52.7513 85.3117 52.7513C85.553 52.7513 85.7618 52.784 85.9427 52.8448C86.1283 52.901 86.2883 52.9641 86.4252 53.0319V50.6274L87.5666 50.431V57.7193Z" fill="#4A4747"/>
<path d="M88.4219 55.3897C88.4219 54.9476 88.4868 54.5616 88.6167 54.2295C88.7466 53.8997 88.9183 53.626 89.1364 53.4062C89.3521 53.1816 89.6003 53.0132 89.8787 52.901C90.1571 52.7887 90.4401 52.7325 90.7324 52.7325C91.419 52.7325 91.9503 52.9477 92.3284 53.3781C92.7112 53.8038 92.9037 54.4424 92.9037 55.2961C92.9037 55.3592 92.8991 55.4318 92.8944 55.5113C92.8944 55.5861 92.8898 55.6586 92.8852 55.7265H89.6096C89.6398 56.1264 89.779 56.4375 90.0272 56.6621C90.28 56.8819 90.6442 56.9895 91.1221 56.9895C91.4005 56.9895 91.6533 56.9661 91.883 56.9147C92.1173 56.8585 92.3006 56.8024 92.4305 56.7463L92.5882 57.7006C92.5186 57.7333 92.4305 57.7661 92.3191 57.8035C92.2124 57.8362 92.0895 57.8643 91.948 57.8877C91.8041 57.9181 91.651 57.9438 91.484 57.9626C91.317 57.9813 91.15 57.9906 90.9829 57.9906C90.5422 57.9906 90.1617 57.9251 89.8416 57.7941C89.5191 57.6632 89.2524 57.4831 89.0436 57.2515C88.8325 57.0223 88.6747 56.7463 88.5703 56.4282C88.4706 56.1101 88.4219 55.7639 88.4219 55.3897ZM91.7624 54.8657C91.7624 54.7113 91.7369 54.5616 91.6881 54.4166C91.6441 54.2739 91.5791 54.15 91.4933 54.0424C91.4121 53.9371 91.31 53.8553 91.1871 53.7991C91.0618 53.7383 90.9133 53.7056 90.7417 53.7056C90.5607 53.7056 90.403 53.7407 90.2684 53.8085C90.1385 53.8716 90.0272 53.9582 89.9344 54.0705C89.8462 54.178 89.7766 54.302 89.721 54.4447C89.6699 54.5827 89.6374 54.723 89.6189 54.8657H91.7624Z" fill="#4A4747"/>
<path d="M96.6162 53.9021C96.5234 53.8717 96.3888 53.8413 96.2172 53.8085C96.0501 53.7711 95.8576 53.7524 95.6418 53.7524C95.5119 53.7524 95.3751 53.7664 95.2336 53.7898C95.0897 53.8155 94.9923 53.8366 94.9366 53.8553V57.869H93.786V53.0975C94.0087 53.0179 94.2824 52.9384 94.6119 52.8636C94.9459 52.7887 95.3171 52.7513 95.7254 52.7513C95.7996 52.7513 95.8854 52.7583 95.9852 52.77C96.0896 52.777 96.1916 52.7887 96.2914 52.8074C96.3958 52.8215 96.4955 52.8402 96.5883 52.8636C96.6811 52.8893 96.7577 52.9103 96.8203 52.929L96.6162 53.9021Z" fill="#4A4747"/>
<path d="M101.166 57.9626C100.825 57.9555 100.54 57.9181 100.312 57.8503C100.089 57.7825 99.9085 57.6819 99.774 57.5509C99.6441 57.4199 99.5513 57.2585 99.4956 57.0644C99.4446 56.8656 99.4214 56.641 99.4214 56.3907V50.6274L100.572 50.431V56.1756C100.572 56.3136 100.581 56.4328 100.6 56.5311C100.623 56.6246 100.665 56.7065 100.72 56.7743C100.776 56.8445 100.853 56.896 100.952 56.9334C101.05 56.9661 101.177 56.9895 101.333 57.0082L101.166 57.9626Z" fill="#4A4747"/>
<path d="M101.695 55.3897C101.695 54.9476 101.76 54.5616 101.89 54.2295C102.02 53.8997 102.192 53.626 102.41 53.4062C102.625 53.1816 102.874 53.0132 103.152 52.901C103.43 52.7887 103.713 52.7325 104.006 52.7325C104.692 52.7325 105.223 52.9477 105.602 53.3781C105.984 53.8038 106.177 54.4424 106.177 55.2961C106.177 55.3592 106.172 55.4318 106.168 55.5113C106.168 55.5861 106.163 55.6586 106.158 55.7265H102.883C102.913 56.1264 103.052 56.4375 103.3 56.6621C103.553 56.8819 103.917 56.9895 104.395 56.9895C104.674 56.9895 104.927 56.9661 105.156 56.9147C105.39 56.8585 105.574 56.8024 105.704 56.7463L105.861 57.7006C105.792 57.7333 105.704 57.7661 105.592 57.8035C105.486 57.8362 105.363 57.8643 105.221 57.8877C105.077 57.9181 104.924 57.9438 104.757 57.9626C104.59 57.9813 104.423 57.9906 104.256 57.9906C103.815 57.9906 103.435 57.9251 103.115 57.7941C102.792 57.6632 102.526 57.4831 102.317 57.2515C102.106 57.0223 101.948 56.7463 101.844 56.4282C101.744 56.1101 101.695 55.7639 101.695 55.3897ZM105.036 54.8657C105.036 54.7113 105.01 54.5616 104.961 54.4166C104.917 54.2739 104.852 54.15 104.766 54.0424C104.685 53.9371 104.583 53.8553 104.46 53.7991C104.335 53.7383 104.187 53.7056 104.015 53.7056C103.834 53.7056 103.676 53.7407 103.542 53.8085C103.412 53.8716 103.3 53.9582 103.208 54.0705C103.119 54.178 103.05 54.302 102.994 54.4447C102.943 54.5827 102.911 54.723 102.892 54.8657H105.036Z" fill="#4A4747"/>
<path d="M110.363 55.3522C110.363 54.861 110.265 54.4704 110.075 54.1827C109.882 53.8974 109.576 53.7524 109.156 53.7524C108.964 53.7524 108.785 53.7804 108.618 53.8366C108.451 53.8927 108.317 53.9558 108.219 54.0237V56.9147C108.298 56.9334 108.405 56.9521 108.535 56.9708C108.664 56.9849 108.822 56.9895 109.008 56.9895C109.428 56.9895 109.759 56.8469 110.001 56.5592C110.242 56.2668 110.363 55.8645 110.363 55.3522ZM111.541 55.3709C111.541 55.7709 111.481 56.1335 111.365 56.4562C111.246 56.7814 111.079 57.0597 110.864 57.2889C110.646 57.5135 110.381 57.6889 110.066 57.8129C109.755 57.9298 109.407 57.9906 109.017 57.9906C108.632 57.9906 108.268 57.9626 107.922 57.9064C107.581 57.8503 107.296 57.7895 107.068 57.7193V50.6274L108.219 50.431V53.0319C108.349 52.9641 108.509 52.901 108.702 52.8448C108.899 52.784 109.115 52.7513 109.351 52.7513C109.697 52.7513 110.005 52.8144 110.279 52.9384C110.557 53.0647 110.785 53.2424 110.966 53.4717C111.151 53.7032 111.293 53.9816 111.393 54.3044C111.49 54.6225 111.541 54.978 111.541 55.3709Z" fill="#4A4747"/>
<path d="M112.109 55.3897C112.109 54.9476 112.174 54.5616 112.304 54.2295C112.434 53.8997 112.605 53.626 112.823 53.4062C113.039 53.1816 113.287 53.0132 113.566 52.901C113.844 52.7887 114.127 52.7325 114.419 52.7325C115.106 52.7325 115.637 52.9477 116.015 53.3781C116.398 53.8038 116.591 54.4424 116.591 55.2961C116.591 55.3592 116.586 55.4318 116.581 55.5113C116.581 55.5861 116.577 55.6586 116.572 55.7265H113.296C113.327 56.1264 113.466 56.4375 113.714 56.6621C113.967 56.8819 114.331 56.9895 114.809 56.9895C115.087 56.9895 115.34 56.9661 115.57 56.9147C115.804 56.8585 115.987 56.8024 116.117 56.7463L116.275 57.7006C116.206 57.7333 116.117 57.7661 116.006 57.8035C115.899 57.8362 115.776 57.8643 115.635 57.8877C115.491 57.9181 115.338 57.9438 115.171 57.9626C115.004 57.9813 114.837 57.9906 114.67 57.9906C114.229 57.9906 113.849 57.9251 113.528 57.7941C113.206 57.6632 112.939 57.4831 112.73 57.2515C112.519 57.0223 112.362 56.7463 112.257 56.4282C112.157 56.1101 112.109 55.7639 112.109 55.3897ZM115.449 54.8657C115.449 54.7113 115.424 54.5616 115.375 54.4166C115.331 54.2739 115.266 54.15 115.18 54.0424C115.099 53.9371 114.997 53.8553 114.874 53.7991C114.749 53.7383 114.6 53.7056 114.429 53.7056C114.248 53.7056 114.09 53.7407 113.955 53.8085C113.825 53.8716 113.714 53.9582 113.621 54.0705C113.533 54.178 113.464 54.302 113.408 54.4447C113.357 54.5827 113.324 54.723 113.306 54.8657H115.449Z" fill="#4A4747"/>
<path d="M117.482 53.0226C117.705 52.9618 117.993 52.901 118.345 52.8448C118.698 52.784 119.09 52.7513 119.524 52.7513C119.932 52.7513 120.271 52.8074 120.544 52.9197C120.816 53.032 121.031 53.191 121.194 53.3968C121.354 53.598 121.465 53.8413 121.528 54.1266C121.595 54.4073 121.63 54.716 121.63 55.0529V57.869H120.479V55.2306C120.479 54.964 120.461 54.7348 120.424 54.5476C120.391 54.3605 120.336 54.2085 120.257 54.0892C120.182 53.9722 120.076 53.888 119.941 53.8366C119.804 53.7804 119.637 53.7524 119.44 53.7524C119.292 53.7524 119.136 53.7617 118.976 53.7804C118.821 53.7992 118.707 53.8155 118.633 53.8272V57.869H117.482V53.0226Z" fill="#4A4747"/>
<path d="M123.997 57.2328C123.997 57.4574 123.923 57.6422 123.775 57.7848C123.626 57.9205 123.445 57.9907 123.236 57.9907C123.018 57.9907 122.837 57.9205 122.689 57.7848C122.545 57.6422 122.476 57.4574 122.476 57.2328C122.476 57.0153 122.545 56.8352 122.689 56.6902C122.837 56.5405 123.018 56.4656 123.236 56.4656C123.445 56.4656 123.626 56.5405 123.775 56.6902C123.923 56.8352 123.997 57.0153 123.997 57.2328Z" fill="#4A4747"/>
<path d="M161.496 25.6776C161.496 39.8589 150.092 51.3551 136.029 51.3551C121.965 51.3551 110.563 39.8589 110.563 25.6776C110.563 11.4962 121.965 0 136.029 0C150.092 0 161.496 11.4962 161.496 25.6776Z" fill="#91BF23"/>
<path d="M106.71 29.7802H122.693L124.412 22.9783L126.11 29.7802H128.086L129.451 34.8839L133.151 7.81226L135.974 41.9336L137.739 29.7802H140.65C140.65 29.7802 142.332 26.6997 143.555 26.7278C144.891 26.7605 146.404 29.7802 146.404 29.7802H153.347" stroke="white" stroke-width="3.73467" stroke-miterlimit="10" stroke-linecap="round" stroke-linejoin="round"/>
<path d="M153.349 32.8443C151.674 32.8443 150.31 31.4713 150.31 29.7825C150.31 28.0914 151.674 26.7184 153.349 26.7184C155.024 26.7184 156.386 28.0914 156.386 29.7825C156.386 31.4713 155.024 32.8443 153.349 32.8443Z" fill="#F3CC23"/>
<path d="M153.349 25.8787C151.215 25.8787 149.479 27.6306 149.479 29.7825C149.479 31.9321 151.215 33.6816 153.349 33.6816C155.483 33.6816 157.218 31.9321 157.218 29.7825C157.218 27.6306 155.483 25.8787 153.349 25.8787ZM153.349 27.5558C154.564 27.5558 155.553 28.5545 155.553 29.7825C155.553 31.0105 154.564 32.0046 153.349 32.0046C152.131 32.0046 151.143 31.0105 151.143 29.7825C151.143 28.5545 152.131 27.5558 153.349 27.5558Z" fill="white"/>
<path d="M0.5 40.2844V11.917L6.07678 11.0095V20.5152C6.44795 20.3912 6.92582 20.2719 7.51505 20.1596C8.10196 20.0474 8.67031 19.9912 9.22242 19.9912C10.8184 19.9912 12.1454 20.2134 13.2032 20.6555C14.261 21.0929 15.1077 21.7127 15.7457 22.5173C16.3813 23.322 16.8313 24.281 17.0912 25.3896C17.3556 26.4937 17.4902 27.724 17.4902 29.0759V40.2844H11.9134V29.7589C11.9134 27.9508 11.6814 26.6691 11.2174 25.9136C10.7581 25.1604 9.90444 24.7815 8.65639 24.7815C8.15995 24.7815 7.69368 24.8259 7.25523 24.9125C6.81447 25.0014 6.42243 25.0949 6.07678 25.1932V40.2844H0.5Z" fill="#4A4747"/>
<path d="M20.6187 30.5167C20.6187 28.7531 20.8877 27.2117 21.4259 25.8949C21.9641 24.5733 22.6693 23.4717 23.5416 22.5922C24.4138 21.7127 25.416 21.0485 26.548 20.5994C27.6847 20.1456 28.8539 19.9164 30.0556 19.9164C32.844 19.9164 35.0501 20.7771 36.6716 22.4986C38.2908 24.2201 39.1028 26.7533 39.1028 30.0957C39.1028 30.4279 39.0888 30.7881 39.0656 31.181C39.0401 31.5693 39.0146 31.9108 38.9914 32.2102H26.3439C26.4668 33.3703 27.0027 34.2919 27.9492 34.9702C28.9003 35.6438 30.1762 35.9806 31.7722 35.9806C32.7929 35.9806 33.7951 35.8871 34.7787 35.7C35.7669 35.5128 36.5742 35.2836 37.2005 35.0076L37.9429 39.564C37.6459 39.7207 37.2469 39.8727 36.7458 40.0224C36.2494 40.1721 35.6973 40.3031 35.0849 40.4154C34.4724 40.5277 33.8159 40.6212 33.1177 40.6961C32.4171 40.7709 31.7189 40.8083 31.0206 40.8083C29.2506 40.8083 27.7103 40.5464 26.3996 40.0224C25.0935 39.4938 24.0079 38.7687 23.1426 37.8518C22.2819 36.935 21.644 35.8497 21.2311 34.596C20.8228 33.3376 20.6187 31.9763 20.6187 30.5167ZM33.7208 28.3649C33.6953 27.8854 33.6118 27.4199 33.4703 26.9708C33.3334 26.517 33.1223 26.1147 32.8393 25.7639C32.554 25.4084 32.1921 25.1183 31.7537 24.8938C31.3129 24.6692 30.7724 24.557 30.1298 24.557C29.5035 24.557 28.9653 24.6646 28.5152 24.8751C28.0698 25.0879 27.694 25.3709 27.3924 25.7265C27.0955 26.0773 26.8635 26.4843 26.6965 26.9521C26.5341 27.4152 26.4181 27.8854 26.3439 28.3649H33.7208Z" fill="#4A4747"/>
<path d="M49.9505 36.3642C50.4933 36.3642 51.0176 36.3525 51.5186 36.3268C52.0197 36.3034 52.4187 36.266 52.7157 36.2145V31.9482C52.493 31.8991 52.1543 31.85 51.7042 31.7985C51.2588 31.7494 50.8459 31.7237 50.4701 31.7237C49.9435 31.7237 49.4494 31.7564 48.9854 31.8172C48.5261 31.8804 48.1225 31.9997 47.7699 32.1728C47.4219 32.3482 47.1505 32.5891 46.9533 32.8932C46.7538 33.1926 46.6564 33.5715 46.6564 34.0252C46.6564 34.9047 46.9463 35.5175 47.5286 35.859C48.1155 36.1958 48.9228 36.3642 49.9505 36.3642ZM49.4958 19.9164C51.1405 19.9164 52.5115 20.1082 53.6065 20.4871C54.706 20.8613 55.5876 21.4016 56.251 22.1057C56.9122 22.805 57.3784 23.6588 57.6522 24.6692C57.9305 25.675 58.0697 26.793 58.0697 28.028V39.723C57.2717 39.8985 56.1605 40.1043 54.7385 40.3405C53.3142 40.5768 51.5929 40.6961 49.57 40.6961C48.3011 40.6961 47.1482 40.5838 46.1089 40.3593C45.0743 40.1347 44.1835 39.7652 43.4365 39.2459C42.6872 38.729 42.1119 38.0553 41.7106 37.225C41.3139 36.397 41.1167 35.3795 41.1167 34.1749C41.1167 33.0148 41.344 32.0324 41.8034 31.2278C42.2673 30.4232 42.8844 29.7846 43.6592 29.3098C44.4317 28.8303 45.3155 28.4841 46.313 28.2713C47.3152 28.0608 48.3498 27.9532 49.4216 27.9532C50.1453 27.9532 50.7879 27.9859 51.3516 28.0468C51.913 28.1099 52.3677 28.1918 52.7157 28.29V27.7567C52.7157 26.8024 52.428 26.0399 51.8527 25.4645C51.282 24.8844 50.2868 24.5944 48.8648 24.5944C47.9183 24.5944 46.9811 24.6646 46.0532 24.8002C45.1299 24.9382 44.3319 25.1324 43.6592 25.3803L42.954 20.8613C43.2741 20.7561 43.6777 20.6462 44.1603 20.5339C44.6474 20.4216 45.181 20.3234 45.7563 20.2345C46.3316 20.1479 46.9347 20.0731 47.5657 20.0099C48.2013 19.9491 48.8462 19.9164 49.4958 19.9164Z" fill="#4A4747"/>
<path d="M69.9615 40.6586C68.34 40.6329 67.0223 40.4575 66.0086 40.1347C64.9995 39.8049 64.2015 39.3465 63.6146 38.7594C63.0323 38.1676 62.6333 37.4495 62.4175 36.6075C62.2064 35.7655 62.1021 34.8158 62.1021 33.7539V11.917L67.6788 11.0095V32.6312C67.6788 33.1317 67.7159 33.5832 67.7902 33.9878C67.8644 34.3878 68.0059 34.7269 68.217 35.0076C68.4328 35.2836 68.739 35.5082 69.1357 35.6813C69.537 35.8567 70.0752 35.9689 70.7502 36.0181L69.9615 40.6586Z" fill="#4A4747"/>
<path d="M72.7983 15.5003L78.3751 14.5928V20.4403H85.0747V25.1183H78.3751V32.0979C78.3751 33.2837 78.5793 34.2287 78.9875 34.9327C79.4005 35.6321 80.2333 35.9806 81.4836 35.9806C82.0775 35.9806 82.6923 35.9245 83.3302 35.8122C83.9658 35.6999 84.5481 35.5456 85.0747 35.3444L85.8541 39.723C85.1791 39.999 84.4298 40.2353 83.6086 40.4341C82.785 40.6329 81.7759 40.7335 80.5836 40.7335C79.0618 40.7335 77.7998 40.5276 76.7977 40.116C75.8002 39.6996 75.0021 39.1195 74.4036 38.3757C73.8098 37.6343 73.3922 36.7361 73.1509 35.6812C72.9143 34.6287 72.7983 33.4592 72.7983 32.1727V15.5003Z" fill="#4A4747"/>
<path d="M88.6361 40.2844V11.917L94.2129 11.0095V20.5152C94.5841 20.3912 95.0619 20.2719 95.6512 20.1596C96.2381 20.0474 96.8064 19.9912 97.3585 19.9912C98.9545 19.9912 100.281 20.2134 101.339 20.6555C102.397 21.0929 103.244 21.7127 103.882 22.5173C104.517 23.322 104.967 24.281 105.227 25.3896C105.492 26.4937 105.626 27.724 105.626 29.0759V40.2844H100.049V29.7589C100.049 27.9508 99.8175 26.6691 99.3535 25.9136C98.8942 25.1604 98.0405 24.7815 96.7925 24.7815C96.2961 24.7815 95.8298 24.8259 95.3913 24.9125C94.9506 25.0014 94.5585 25.0949 94.2129 25.1932V40.2844H88.6361Z" fill="#4A4747"/>
<path d="M166.711 15.5003L172.288 14.5928V20.4403H178.988V25.1183H172.288V32.0979C172.288 33.2837 172.492 34.2287 172.9 34.9327C173.313 35.6321 174.146 35.9806 175.396 35.9806C175.99 35.9806 176.605 35.9245 177.243 35.8122C177.879 35.6999 178.461 35.5456 178.988 35.3444L179.767 39.723C179.092 39.999 178.343 40.2353 177.521 40.4341C176.698 40.6329 175.689 40.7335 174.496 40.7335C172.975 40.7335 171.713 40.5276 170.711 40.116C169.713 39.6996 168.915 39.1195 168.316 38.3757C167.723 37.6343 167.305 36.7361 167.064 35.6812C166.827 34.6287 166.711 33.4592 166.711 32.1727V15.5003Z" fill="#4A4747"/>
<path d="M188.27 40.2844C186.994 37.7723 185.702 34.8298 184.391 31.4617C183.085 28.0888 181.844 24.4143 180.67 20.4403H186.581C186.834 21.4203 187.129 22.4846 187.463 23.6307C187.801 24.7721 188.152 25.9299 188.511 27.1018C188.869 28.2689 189.228 29.408 189.588 30.5167C189.952 31.6207 190.311 32.6265 190.664 33.5294C190.984 32.6265 191.332 31.6207 191.703 30.5167C192.079 29.408 192.448 28.2689 192.808 27.1018C193.172 25.9299 193.522 24.7721 193.856 23.6307C194.195 22.4846 194.489 21.4203 194.738 20.4403H200.5C199.331 24.4143 198.09 28.0888 196.779 31.4617C195.466 34.8298 194.176 37.7723 192.91 40.2844H188.27Z" fill="#4A4747"/>
</svg>
